<mxfile host="Electron" modified="2025-01-06T18:43:31.139Z" agent="Mozilla/5.0 (Macintosh; Intel Mac OS X 10_15_7) AppleWebKit/537.36 (KHTML, like Gecko) draw.io/24.4.8 Chrome/124.0.6367.207 Electron/30.0.6 Safari/537.36" etag="g401rZlHRRamU35_5nUG" version="24.4.8" type="device">
  <diagram name="Страница — 1" id="M_9aOFABiwCSObLS5C-2">
    <mxGraphModel dx="710" dy="518" grid="1" gridSize="10" guides="1" tooltips="1" connect="1" arrows="1" fold="1" page="1" pageScale="1" pageWidth="827" pageHeight="1169" math="0" shadow="0">
      <root>
        <mxCell id="0" />
        <mxCell id="1" parent="0" />
        <mxCell id="bYTFRtONIOl5rvXJ5vdI-70" value="" style="rounded=0;whiteSpace=wrap;html=1;strokeColor=none;fillColor=none;" vertex="1" parent="1">
          <mxGeometry x="160" y="80" width="480" height="280" as="geometry" />
        </mxCell>
        <mxCell id="bYTFRtONIOl5rvXJ5vdI-8" value="" style="group" vertex="1" connectable="0" parent="1">
          <mxGeometry x="385" y="130" width="50" height="50" as="geometry" />
        </mxCell>
        <mxCell id="bYTFRtONIOl5rvXJ5vdI-4" value="" style="verticalLabelPosition=bottom;verticalAlign=top;html=1;shape=mxgraph.basic.acute_triangle;dx=0.5;fillColor=#d5e8d4;strokeColor=#82b366;" vertex="1" parent="bYTFRtONIOl5rvXJ5vdI-8">
          <mxGeometry width="50" height="50" as="geometry" />
        </mxCell>
        <mxCell id="bYTFRtONIOl5rvXJ5vdI-7" value="M" style="text;html=1;align=center;verticalAlign=middle;whiteSpace=wrap;rounded=0;" vertex="1" parent="bYTFRtONIOl5rvXJ5vdI-8">
          <mxGeometry x="5" y="20" width="40" height="30" as="geometry" />
        </mxCell>
        <mxCell id="bYTFRtONIOl5rvXJ5vdI-5" style="edgeStyle=orthogonalEdgeStyle;rounded=0;orthogonalLoop=1;jettySize=auto;html=1;exitX=1;exitY=0.5;exitDx=0;exitDy=0;endArrow=none;endFill=0;" edge="1" parent="1" source="bYTFRtONIOl5rvXJ5vdI-1">
          <mxGeometry relative="1" as="geometry">
            <mxPoint x="410" y="210" as="targetPoint" />
          </mxGeometry>
        </mxCell>
        <mxCell id="bYTFRtONIOl5rvXJ5vdI-1" value="G2" style="ellipse;whiteSpace=wrap;html=1;aspect=fixed;fillColor=#dae8fc;strokeColor=#6c8ebf;" vertex="1" parent="1">
          <mxGeometry x="340" y="190" width="40" height="40" as="geometry" />
        </mxCell>
        <mxCell id="bYTFRtONIOl5rvXJ5vdI-2" value="P" style="whiteSpace=wrap;html=1;aspect=fixed;fillColor=#fff2cc;strokeColor=#d6b656;" vertex="1" parent="1">
          <mxGeometry x="390" y="240" width="40" height="40" as="geometry" />
        </mxCell>
        <mxCell id="bYTFRtONIOl5rvXJ5vdI-6" style="edgeStyle=orthogonalEdgeStyle;rounded=0;orthogonalLoop=1;jettySize=auto;html=1;exitX=0.5;exitY=1;exitDx=0;exitDy=0;exitPerimeter=0;entryX=0.5;entryY=0;entryDx=0;entryDy=0;endArrow=none;endFill=0;" edge="1" parent="1" source="bYTFRtONIOl5rvXJ5vdI-4" target="bYTFRtONIOl5rvXJ5vdI-2">
          <mxGeometry relative="1" as="geometry" />
        </mxCell>
        <mxCell id="bYTFRtONIOl5rvXJ5vdI-9" value="" style="endArrow=none;html=1;rounded=0;exitX=1;exitY=0.5;exitDx=0;exitDy=0;" edge="1" parent="1" source="bYTFRtONIOl5rvXJ5vdI-2">
          <mxGeometry width="50" height="50" relative="1" as="geometry">
            <mxPoint x="560" y="360" as="sourcePoint" />
            <mxPoint x="580" y="260" as="targetPoint" />
          </mxGeometry>
        </mxCell>
        <mxCell id="bYTFRtONIOl5rvXJ5vdI-13" style="edgeStyle=orthogonalEdgeStyle;rounded=0;orthogonalLoop=1;jettySize=auto;html=1;exitX=0.5;exitY=0;exitDx=0;exitDy=0;endArrow=none;endFill=0;" edge="1" parent="1" source="bYTFRtONIOl5rvXJ5vdI-10">
          <mxGeometry relative="1" as="geometry">
            <mxPoint x="460" y="260" as="targetPoint" />
          </mxGeometry>
        </mxCell>
        <mxCell id="bYTFRtONIOl5rvXJ5vdI-10" value="G3" style="ellipse;whiteSpace=wrap;html=1;aspect=fixed;fillColor=#dae8fc;strokeColor=#6c8ebf;" vertex="1" parent="1">
          <mxGeometry x="440" y="280" width="40" height="40" as="geometry" />
        </mxCell>
        <mxCell id="bYTFRtONIOl5rvXJ5vdI-14" style="edgeStyle=orthogonalEdgeStyle;rounded=0;orthogonalLoop=1;jettySize=auto;html=1;exitX=0.5;exitY=0;exitDx=0;exitDy=0;endArrow=none;endFill=0;" edge="1" parent="1" source="bYTFRtONIOl5rvXJ5vdI-11">
          <mxGeometry relative="1" as="geometry">
            <mxPoint x="510" y="260" as="targetPoint" />
          </mxGeometry>
        </mxCell>
        <mxCell id="bYTFRtONIOl5rvXJ5vdI-11" value="G4" style="ellipse;whiteSpace=wrap;html=1;aspect=fixed;fillColor=#dae8fc;strokeColor=#6c8ebf;" vertex="1" parent="1">
          <mxGeometry x="490" y="280" width="40" height="40" as="geometry" />
        </mxCell>
        <mxCell id="bYTFRtONIOl5rvXJ5vdI-12" value="G1" style="ellipse;whiteSpace=wrap;html=1;aspect=fixed;fillColor=#dae8fc;strokeColor=#6c8ebf;" vertex="1" parent="1">
          <mxGeometry x="540" y="280" width="40" height="40" as="geometry" />
        </mxCell>
        <mxCell id="bYTFRtONIOl5rvXJ5vdI-16" value="Local Run Queue (LRQ)" style="text;html=1;align=center;verticalAlign=middle;whiteSpace=wrap;rounded=0;" vertex="1" parent="1">
          <mxGeometry x="435" y="230" width="145" height="30" as="geometry" />
        </mxCell>
        <mxCell id="bYTFRtONIOl5rvXJ5vdI-32" value="" style="verticalLabelPosition=bottom;verticalAlign=top;html=1;shape=mxgraph.basic.polygon;polyCoords=[[0.25,0],[0.75,0],[1,0.25],[1,0.75],[0.75,1],[0.25,1],[0,0.75],[0,0.25]];polyline=0;" vertex="1" parent="1">
          <mxGeometry x="485" y="130" width="50" height="50" as="geometry" />
        </mxCell>
        <mxCell id="bYTFRtONIOl5rvXJ5vdI-35" value="" style="endArrow=none;html=1;rounded=0;exitX=0;exitY=0;exitDx=37.5;exitDy=25;exitPerimeter=0;" edge="1" parent="1" source="bYTFRtONIOl5rvXJ5vdI-4" target="bYTFRtONIOl5rvXJ5vdI-32">
          <mxGeometry width="50" height="50" relative="1" as="geometry">
            <mxPoint x="450" y="170" as="sourcePoint" />
            <mxPoint x="460" y="140" as="targetPoint" />
          </mxGeometry>
        </mxCell>
        <mxCell id="bYTFRtONIOl5rvXJ5vdI-37" value="Core" style="text;html=1;align=center;verticalAlign=middle;whiteSpace=wrap;rounded=0;" vertex="1" parent="1">
          <mxGeometry x="490" y="140" width="40" height="30" as="geometry" />
        </mxCell>
        <mxCell id="bYTFRtONIOl5rvXJ5vdI-65" value="Net Poller" style="shape=process;whiteSpace=wrap;html=1;backgroundOutline=1;" vertex="1" parent="1">
          <mxGeometry x="200" y="120" width="101" height="110" as="geometry" />
        </mxCell>
        <mxCell id="bYTFRtONIOl5rvXJ5vdI-68" value="" style="endArrow=none;html=1;rounded=0;" edge="1" parent="1">
          <mxGeometry width="50" height="50" relative="1" as="geometry">
            <mxPoint x="250" y="330" as="sourcePoint" />
            <mxPoint x="250" y="230" as="targetPoint" />
          </mxGeometry>
        </mxCell>
        <mxCell id="bYTFRtONIOl5rvXJ5vdI-69" value="The Net Poller completes the asynchronous network call and G1 is moved back to the LRQ on the P" style="text;html=1;align=center;verticalAlign=middle;whiteSpace=wrap;rounded=0;" vertex="1" parent="1">
          <mxGeometry x="301" y="90" width="339" height="30" as="geometry" />
        </mxCell>
        <mxCell id="bYTFRtONIOl5rvXJ5vdI-74" style="edgeStyle=orthogonalEdgeStyle;rounded=0;orthogonalLoop=1;jettySize=auto;html=1;entryX=0.862;entryY=1;entryDx=0;entryDy=0;entryPerimeter=0;endArrow=none;endFill=0;" edge="1" parent="1" source="bYTFRtONIOl5rvXJ5vdI-12" target="bYTFRtONIOl5rvXJ5vdI-16">
          <mxGeometry relative="1" as="geometry" />
        </mxCell>
      </root>
    </mxGraphModel>
  </diagram>
</mxfile>
